<svg width="202" height="59" viewBox="0 0 202 59" fill="none" xmlns="http://www.w3.org/2000/svg">
<path d="M200.878 51.6257C200.878 54.7355 198.306 57.2545 195.125 57.2545H6.8818C3.70262 57.2545 1.12207 54.7355 1.12207 51.6257V6.73729C1.12207 3.62892 3.70262 1.10107 6.8818 1.10107H195.124C198.306 1.10107 200.876 3.62892 200.876 6.73729L200.878 51.6257Z" fill="black"/>
<path d="M194.519 1.16885C197.982 1.16885 200.801 3.91704 200.801 7.29436V51.061C200.801 54.4384 197.982 57.1865 194.519 57.1865H7.48148C4.01756 57.1865 1.19891 54.4384 1.19891 51.061V7.29436C1.19891 3.91704 4.01756 1.16885 7.48148 1.16885H194.519ZM194.519 -8.01086e-05H7.48148C3.36854 -8.01086e-05 0 3.28424 0 7.29436V51.061C0 55.0711 3.36854 58.3555 7.48148 58.3555H194.519C198.631 58.3555 202 55.0711 202 51.061V7.29436C202 3.28424 198.631 -8.01086e-05 194.519 -8.01086e-05Z" fill="#A6A6A6"/>
<path d="M45.0806 28.8626C45.0372 24.1606 49.0293 21.873 49.2118 21.7665C46.9509 18.5526 43.4466 18.1135 42.2152 18.0785C39.2719 17.7765 36.417 19.7956 34.9177 19.7956C33.3885 19.7956 31.0797 18.1076 28.5914 18.1572C25.3893 18.2054 22.3937 20.0129 20.7508 22.8198C17.3602 28.5431 19.8889 36.9536 23.1374 41.5797C24.7624 43.8454 26.6612 46.3751 29.1465 46.2861C31.578 46.1883 32.4862 44.7747 35.4205 44.7747C38.3278 44.7747 39.1807 46.2861 41.7154 46.2292C44.3249 46.1883 45.9679 43.9533 47.536 41.6672C49.4138 39.0704 50.168 36.513 50.1979 36.3817C50.1365 36.3613 45.1299 34.4983 45.0806 28.8626Z" fill="white"/>
<path d="M40.2924 15.0352C41.6002 13.4407 42.495 11.2713 42.2466 9.06982C40.3538 9.15152 37.9866 10.3464 36.6235 11.9059C35.4175 13.2802 34.3401 15.5327 34.6185 17.651C36.7447 17.8056 38.9278 16.605 40.2924 15.0352Z" fill="white"/>
<path d="M73.3932 14.602C73.3932 16.3191 72.865 17.6117 71.8101 18.4797C70.833 19.2807 69.4444 19.6819 67.6459 19.6819C66.7541 19.6819 65.991 19.6439 65.3521 19.5681V10.186C66.1855 10.0547 67.0833 9.98755 68.0529 9.98755C69.7661 9.98755 71.0574 10.3508 71.9283 11.0773C72.9039 11.8987 73.3932 13.0731 73.3932 14.602ZM71.7397 14.6443C71.7397 13.5312 71.4375 12.6777 70.833 12.0825C70.2285 11.4887 69.3457 11.1911 68.183 11.1911C67.6893 11.1911 67.2688 11.2232 66.9202 11.2903V18.4228C67.1132 18.452 67.4663 18.4652 67.9795 18.4652C69.1796 18.4652 70.1058 18.1398 70.7582 17.4892C71.4106 16.8385 71.7397 15.8902 71.7397 14.6443Z" fill="white"/>
<path d="M82.1604 16.1018C82.1604 17.1595 81.8506 18.0261 81.2312 18.706C80.5818 19.4048 79.7214 19.7534 78.6471 19.7534C77.6116 19.7534 76.7872 19.4193 76.1722 18.7483C75.5587 18.0786 75.252 17.2339 75.252 16.2156C75.252 15.1506 75.5677 14.2768 76.2021 13.5984C76.8365 12.92 77.6894 12.5801 78.7638 12.5801C79.7992 12.5801 80.6311 12.9142 81.2611 13.5838C81.8596 14.2345 82.1604 15.0748 82.1604 16.1018ZM80.5339 16.1514C80.5339 15.5168 80.3932 14.9727 80.1134 14.5189C79.7842 13.9704 79.3159 13.6961 78.7069 13.6961C78.077 13.6961 77.5981 13.9704 77.269 14.5189C76.9877 14.9727 76.8485 15.5256 76.8485 16.1792C76.8485 16.8138 76.9892 17.3579 77.269 17.8117C77.6086 18.3602 78.0815 18.6345 78.6919 18.6345C79.2905 18.6345 79.7603 18.3558 80.0985 17.7971C80.3887 17.3346 80.5339 16.7861 80.5339 16.1514Z" fill="white"/>
<path d="M93.915 12.72L91.708 19.5972H90.2715L89.3573 16.6108C89.1254 15.8653 88.9368 15.1242 88.7902 14.3889H88.7618C88.6256 15.1446 88.4371 15.8843 88.1947 16.6108L87.2236 19.5972H85.7707L83.6953 12.72H85.3068L86.1043 15.9893C86.2974 16.7626 86.456 17.4993 86.5832 18.1966H86.6116C86.7283 17.6218 86.9213 16.8895 87.1936 16.0039L88.1947 12.7214H89.4725L90.4316 15.9339C90.6636 16.7173 90.8521 17.4716 90.9972 18.1981H91.0406C91.1469 17.4905 91.307 16.7363 91.5194 15.9339L92.3753 12.7214H93.915V12.72Z" fill="white"/>
<path d="M102.044 19.5973H100.476V15.6583C100.476 14.4445 100.004 13.8376 99.0549 13.8376C98.5896 13.8376 98.214 14.0039 97.9222 14.338C97.6334 14.6721 97.4868 15.066 97.4868 15.5168V19.5959H95.9187V14.6852C95.9187 14.0813 95.8992 13.4262 95.8618 12.7172H97.2399L97.3132 13.7924H97.3566C97.5392 13.4583 97.8115 13.1826 98.1691 12.9623C98.594 12.7055 99.0699 12.5757 99.5906 12.5757C100.249 12.5757 100.797 12.7828 101.232 13.1986C101.774 13.7078 102.044 14.4679 102.044 15.4774V19.5973Z" fill="white"/>
<path d="M106.369 19.5972H104.802V9.56445H106.369V19.5972Z" fill="white"/>
<path d="M115.601 16.1018C115.601 17.1595 115.291 18.0261 114.672 18.706C114.022 19.4048 113.16 19.7534 112.087 19.7534C111.051 19.7534 110.226 19.4193 109.613 18.7483C108.999 18.0786 108.692 17.2339 108.692 16.2156C108.692 15.1506 109.008 14.2768 109.643 13.5984C110.277 12.92 111.13 12.5801 112.203 12.5801C113.24 12.5801 114.07 12.9142 114.702 13.5838C115.3 14.2345 115.601 15.0748 115.601 16.1018ZM113.973 16.1514C113.973 15.5168 113.832 14.9727 113.552 14.5189C113.225 13.9704 112.755 13.6961 112.147 13.6961C111.516 13.6961 111.037 13.9704 110.709 14.5189C110.428 14.9727 110.289 15.5256 110.289 16.1792C110.289 16.8138 110.43 17.3579 110.709 17.8117C111.049 18.3602 111.522 18.6345 112.132 18.6345C112.731 18.6345 113.199 18.3558 113.537 17.7971C113.829 17.3346 113.973 16.7861 113.973 16.1514Z" fill="white"/>
<path d="M123.19 19.5973H121.782L121.665 18.8052H121.622C121.14 19.4369 120.453 19.7534 119.562 19.7534C118.896 19.7534 118.357 19.5448 117.952 19.1305C117.583 18.7541 117.399 18.2858 117.399 17.73C117.399 16.8896 117.759 16.2492 118.481 15.8057C119.202 15.3622 120.217 15.1448 121.523 15.155V15.0266C121.523 14.1207 121.035 13.6684 120.058 13.6684C119.363 13.6684 118.749 13.8391 118.219 14.1776L117.901 13.1738C118.556 12.7785 119.366 12.5801 120.32 12.5801C122.164 12.5801 123.088 13.5284 123.088 15.4249V17.9575C123.088 18.6447 123.123 19.1918 123.19 19.5973ZM121.562 17.2339V16.1733C119.832 16.1441 118.968 16.6066 118.968 17.5593C118.968 17.9182 119.066 18.1866 119.268 18.366C119.47 18.5455 119.728 18.6345 120.034 18.6345C120.379 18.6345 120.7 18.528 120.994 18.3164C121.288 18.1034 121.469 17.8335 121.537 17.5024C121.553 17.428 121.562 17.3375 121.562 17.2339Z" fill="white"/>
<path d="M132.101 19.5972H130.709L130.636 18.4929H130.592C130.148 19.3332 129.391 19.7533 128.327 19.7533C127.477 19.7533 126.769 19.428 126.208 18.7773C125.647 18.1267 125.367 17.282 125.367 16.2447C125.367 15.1316 125.671 14.23 126.281 13.5414C126.872 12.8995 127.597 12.5785 128.459 12.5785C129.406 12.5785 130.069 12.8893 130.446 13.5122H130.476V9.56445H132.045V17.7444C132.045 18.4141 132.063 19.0312 132.101 19.5972ZM130.476 16.697V15.5503C130.476 15.3519 130.461 15.1914 130.432 15.0688C130.344 14.7012 130.154 14.3919 129.865 14.1424C129.573 13.893 129.222 13.7675 128.816 13.7675C128.231 13.7675 127.773 13.9936 127.437 14.4474C127.103 14.9011 126.934 15.4802 126.934 16.1878C126.934 16.8676 127.094 17.4191 127.416 17.8436C127.755 18.2959 128.213 18.522 128.786 18.522C129.301 18.522 129.712 18.3338 130.025 17.956C130.327 17.6073 130.476 17.1871 130.476 16.697Z" fill="white"/>
<path d="M145.512 16.1018C145.512 17.1595 145.202 18.0261 144.583 18.706C143.933 19.4048 143.074 19.7534 141.999 19.7534C140.965 19.7534 140.14 19.4193 139.524 18.7483C138.91 18.0786 138.604 17.2339 138.604 16.2156C138.604 15.1506 138.919 14.2768 139.554 13.5984C140.188 12.92 141.041 12.5801 142.117 12.5801C143.151 12.5801 143.984 12.9142 144.613 13.5838C145.211 14.2345 145.512 15.0748 145.512 16.1018ZM143.887 16.1514C143.887 15.5168 143.746 14.9727 143.466 14.5189C143.136 13.9704 142.669 13.6961 142.058 13.6961C141.43 13.6961 140.951 13.9704 140.621 14.5189C140.339 14.9727 140.2 15.5256 140.2 16.1792C140.2 16.8138 140.341 17.3579 140.621 17.8117C140.96 18.3602 141.433 18.6345 142.044 18.6345C142.642 18.6345 143.113 18.3558 143.452 17.7971C143.74 17.3346 143.887 16.7861 143.887 16.1514Z" fill="white"/>
<path d="M153.943 19.5973H152.377V15.6583C152.377 14.4445 151.904 13.8376 150.954 13.8376C150.488 13.8376 150.113 14.0039 149.823 14.338C149.532 14.6721 149.387 15.066 149.387 15.5168V19.5959H147.818V14.6852C147.818 14.0813 147.8 13.4262 147.762 12.7172H149.139L149.212 13.7924H149.256C149.44 13.4583 149.712 13.1826 150.068 12.9623C150.494 12.7055 150.969 12.5757 151.491 12.5757C152.148 12.5757 152.695 12.7828 153.131 13.1986C153.674 13.7078 153.943 14.4679 153.943 15.4774V19.5973Z" fill="white"/>
<path d="M164.497 13.8653H162.77V17.2061C162.77 18.0552 163.077 18.4798 163.685 18.4798C163.966 18.4798 164.199 18.4564 164.383 18.4083L164.424 19.5681C164.114 19.6819 163.707 19.7388 163.206 19.7388C162.586 19.7388 162.104 19.555 161.756 19.1873C161.406 18.8197 161.232 18.2011 161.232 17.3331V13.8653H160.201V12.7201H161.232V11.4596L162.769 11.0073V12.7186H164.496V13.8653H164.497Z" fill="white"/>
<path d="M172.798 19.5972H171.229V15.6874C171.229 14.4546 170.756 13.8375 169.809 13.8375C169.081 13.8375 168.585 14.195 168.312 14.9098C168.266 15.0601 168.239 15.2439 168.239 15.4598V19.5958H166.672V9.56445H168.239V13.7092H168.269C168.763 12.9549 169.47 12.5785 170.388 12.5785C171.037 12.5785 171.574 12.7857 172.001 13.2015C172.532 13.7194 172.798 14.4897 172.798 15.508V19.5972Z" fill="white"/>
<path d="M181.362 15.8333C181.362 16.1076 181.341 16.3381 181.303 16.5263H176.601C176.622 17.2062 176.846 17.7241 177.281 18.083C177.679 18.4039 178.193 18.5644 178.821 18.5644C179.517 18.5644 180.151 18.4564 180.723 18.2391L180.968 19.3011C180.299 19.5841 179.512 19.7257 178.601 19.7257C177.509 19.7257 176.648 19.412 176.026 18.7847C175.401 18.1574 175.091 17.3156 175.091 16.2593C175.091 15.2221 175.38 14.3584 175.962 13.6698C176.569 12.9345 177.391 12.5669 178.428 12.5669C179.442 12.5669 180.213 12.9345 180.733 13.6698C181.154 14.2534 181.362 14.9755 181.362 15.8333ZM179.866 15.438C179.877 14.9843 179.774 14.5933 179.562 14.2636C179.289 13.839 178.875 13.626 178.314 13.626C177.802 13.626 177.385 13.8332 177.066 14.249C176.806 14.5802 176.651 14.9755 176.601 15.438H179.866Z" fill="white"/>
<path d="M80.2689 45.9608H76.8708L75.0094 40.258H68.5394L66.7663 45.9608H63.458L69.8681 26.5459H73.8273L80.2689 45.9608ZM74.4483 37.8654L72.765 32.7958C72.5869 32.2779 72.2532 31.0582 71.761 29.1383H71.7011C71.5051 29.9641 71.1894 31.1837 70.7554 32.7958L69.102 37.8654H74.4483Z" fill="white"/>
<path d="M96.7535 38.7888C96.7535 41.1697 96.0937 43.0517 94.7739 44.4333C93.5919 45.6631 92.124 46.2773 90.3718 46.2773C88.4805 46.2773 87.1219 45.615 86.2944 44.2903H86.2346V51.665H83.0445V36.5699C83.0445 35.073 83.0041 33.5368 82.9263 31.9612H85.7318L85.9099 34.1802H85.9697C87.0336 32.5083 88.6481 31.6738 90.8147 31.6738C92.5085 31.6738 93.9225 32.326 95.0537 33.6317C96.1879 34.9388 96.7535 36.6574 96.7535 38.7888ZM93.5036 38.9026C93.5036 37.54 93.1894 36.4167 92.5579 35.5326C91.8681 34.6106 90.9419 34.1496 89.7808 34.1496C88.9937 34.1496 88.2785 34.4063 87.6396 34.9126C86.9992 35.4232 86.5802 36.0899 86.3842 36.9156C86.2854 37.3008 86.2361 37.6159 86.2361 37.8639V40.1981C86.2361 41.2164 86.5563 42.0757 87.1967 42.7774C87.8371 43.4792 88.6691 43.8293 89.6925 43.8293C90.894 43.8293 91.8292 43.377 92.4981 42.4754C93.1684 41.5724 93.5036 40.3819 93.5036 38.9026Z" fill="white"/>
<path d="M113.268 38.7888C113.268 41.1697 112.608 43.0517 111.287 44.4333C110.106 45.6631 108.639 46.2773 106.886 46.2773C104.995 46.2773 103.637 45.615 102.811 44.2903H102.751V51.665H99.5606V36.5699C99.5606 35.073 99.5202 33.5368 99.4424 31.9612H102.248L102.426 34.1802H102.486C103.548 32.5083 105.163 31.6738 107.331 31.6738C109.023 31.6738 110.437 32.326 111.571 33.6317C112.701 34.9388 113.268 36.6574 113.268 38.7888ZM110.018 38.9026C110.018 37.54 109.702 36.4167 109.071 35.5326C108.381 34.6106 107.458 34.1496 106.295 34.1496C105.507 34.1496 104.793 34.4063 104.153 34.9126C103.512 35.4232 103.095 36.0899 102.899 36.9156C102.802 37.3008 102.751 37.6159 102.751 37.8639V40.1981C102.751 41.2164 103.071 42.0757 103.708 42.7774C104.349 43.4777 105.181 43.8293 106.207 43.8293C107.409 43.8293 108.344 43.377 109.013 42.4754C109.683 41.5724 110.018 40.3819 110.018 38.9026Z" fill="white"/>
<path d="M131.732 40.5163C131.732 42.1677 131.144 43.5114 129.964 44.5486C128.666 45.6822 126.86 46.2483 124.54 46.2483C122.397 46.2483 120.679 45.8456 119.379 45.0388L120.118 42.4464C121.519 43.2721 123.055 43.6864 124.73 43.6864C125.931 43.6864 126.866 43.4209 127.538 42.8928C128.207 42.3647 128.541 41.6557 128.541 40.7716C128.541 39.9838 128.265 39.32 127.713 38.7817C127.164 38.2433 126.247 37.7429 124.966 37.2805C121.48 36.0127 119.738 34.1555 119.738 31.7133C119.738 30.1173 120.349 28.8087 121.571 27.7904C122.789 26.7706 124.414 26.2615 126.446 26.2615C128.258 26.2615 129.763 26.5693 130.965 27.1835L130.167 29.719C129.045 29.1238 127.776 28.8262 126.356 28.8262C125.234 28.8262 124.357 29.0961 123.729 29.633C123.197 30.1129 122.931 30.698 122.931 31.3909C122.931 32.1583 123.235 32.7929 123.845 33.2919C124.377 33.7529 125.342 34.2518 126.742 34.7901C128.455 35.4627 129.714 36.249 130.523 37.1506C131.33 38.0493 131.732 39.1741 131.732 40.5163Z" fill="white"/>
<path d="M142.28 34.2956H138.764V41.0925C138.764 42.8213 139.383 43.685 140.625 43.685C141.195 43.685 141.668 43.6368 142.042 43.5405L142.13 45.9025C141.502 46.1315 140.674 46.2468 139.65 46.2468C138.39 46.2468 137.405 45.8719 136.694 45.1234C135.987 44.3736 135.63 43.116 135.63 41.3493V34.2927H133.536V31.9584H135.63V29.3952L138.764 28.4731V31.9584H142.28V34.2956Z" fill="white"/>
<path d="M158.145 38.8457C158.145 40.9976 157.514 42.7643 156.254 44.1459C154.933 45.5683 153.179 46.2773 150.993 46.2773C148.886 46.2773 147.209 45.596 145.958 44.2334C144.707 42.8708 144.082 41.1508 144.082 39.0777C144.082 36.9083 144.725 35.1314 146.016 33.7498C147.305 32.3668 149.043 31.6753 151.229 31.6753C153.336 31.6753 155.031 32.3566 156.311 33.7207C157.535 35.0439 158.145 36.7522 158.145 38.8457ZM154.835 38.9464C154.835 37.6553 154.553 36.548 153.98 35.6245C153.311 34.507 152.355 33.9497 151.116 33.9497C149.833 33.9497 148.859 34.5085 148.19 35.6245C147.617 36.5494 147.334 37.6742 147.334 39.0048C147.334 40.2959 147.617 41.4032 148.19 42.3252C148.88 43.4427 149.844 44 151.087 44C152.305 44 153.261 43.431 153.951 42.296C154.539 41.355 154.835 40.2361 154.835 38.9464Z" fill="white"/>
<path d="M168.515 34.6966C168.199 34.6397 167.862 34.6106 167.509 34.6106C166.387 34.6106 165.519 35.0234 164.908 35.8506C164.377 36.5801 164.111 37.5021 164.111 38.6152V45.9607H160.922L160.952 36.37C160.952 34.7565 160.912 33.2874 160.833 31.9627H163.611L163.728 34.6412H163.816C164.153 33.7206 164.684 32.9795 165.411 32.4237C166.122 31.9233 166.89 31.6738 167.717 31.6738C168.012 31.6738 168.278 31.6943 168.515 31.7307V34.6966Z" fill="white"/>
<path d="M182.781 38.2988C182.781 38.8561 182.744 39.3258 182.665 39.7095H173.094C173.132 41.0925 173.594 42.1502 174.483 42.8797C175.289 43.5318 176.332 43.8586 177.613 43.8586C179.03 43.8586 180.323 43.6383 181.486 43.1963L181.985 45.3554C180.627 45.9331 179.023 46.2205 177.172 46.2205C174.945 46.2205 173.198 45.5815 171.926 44.305C170.657 43.0285 170.021 41.3143 170.021 39.1639C170.021 37.0529 170.612 35.2949 171.796 33.8929C173.035 32.3961 174.709 31.6477 176.816 31.6477C178.885 31.6477 180.452 32.3961 181.516 33.8929C182.358 35.0819 182.781 36.5525 182.781 38.2988ZM179.739 37.492C179.76 36.57 179.552 35.7734 179.12 35.1009C178.568 34.2358 177.719 33.8039 176.578 33.8039C175.535 33.8039 174.686 34.2256 174.039 35.0717C173.507 35.7443 173.192 36.551 173.094 37.4906H179.739V37.492Z" fill="white"/>
</svg>
