<svg width="203" height="59" viewBox="0 0 203 59" fill="none" xmlns="http://www.w3.org/2000/svg">
<path d="M195.496 58.3555H8.45902C4.34608 58.3555 0.977539 55.0711 0.977539 51.061V7.29436C0.977539 3.28424 4.34608 -8.2016e-05 8.45902 -8.2016e-05H195.496C199.609 -8.2016e-05 202.978 3.28424 202.978 7.29436V51.061C202.978 55.0711 199.609 58.3555 195.496 58.3555Z" fill="black"/>
<path d="M195.496 1.16885C198.96 1.16885 201.779 3.91704 201.779 7.29436V51.061C201.779 54.4384 198.96 57.1865 195.496 57.1865H8.45902C4.99509 57.1865 2.17645 54.4384 2.17645 51.061V7.29436C2.17645 3.91704 4.99509 1.16885 8.45902 1.16885H195.496ZM195.496 -8.2016e-05H8.45902C4.34608 -8.2016e-05 0.977539 3.28424 0.977539 7.29436V51.061C0.977539 55.0711 4.34608 58.3555 8.45902 58.3555H195.496C199.609 58.3555 202.978 55.0711 202.978 51.061V7.29436C202.978 3.28424 199.609 -8.2016e-05 195.496 -8.2016e-05Z" fill="#A6A6A6"/>
<path d="M16.5914 10.9982C16.1518 11.4468 15.8975 12.1453 15.8975 13.0498V45.3131C15.8975 46.2176 16.1518 46.916 16.5914 47.3647L16.6998 47.4631L35.2427 29.3912V28.9644L16.6998 10.8924L16.5914 10.9982Z" fill="url(#paint0_linear_10_1859)"/>
<path d="M41.4168 35.4182L35.2427 29.3912V28.9645L41.4242 22.9374L41.5627 23.0158L48.8833 27.077C50.9725 28.2295 50.9725 30.1261 48.8833 31.2859L41.5627 35.3398L41.4168 35.4182Z" fill="url(#paint1_linear_10_1859)"/>
<path d="M41.5626 35.3398L35.2426 29.1778L16.5913 47.3647C17.2852 48.0759 18.4168 48.1616 19.7036 47.4504L41.5626 35.3398Z" fill="url(#paint2_linear_10_1859)"/>
<path d="M41.5626 23.0158L19.7036 10.9052C18.4168 10.2012 17.2852 10.2869 16.5913 10.9982L35.2426 29.1777L41.5626 23.0158Z" fill="url(#paint3_linear_10_1859)"/>
<path d="M71.9285 14.9444C71.9285 16.1625 71.5545 17.1382 70.8176 17.8658C69.9703 18.7284 68.8668 19.1624 67.5145 19.1624C66.2221 19.1624 65.1185 18.7211 64.2133 17.8512C63.3061 16.9686 62.8535 15.8853 62.8535 14.5888C62.8535 13.2922 63.3061 12.2089 64.2133 11.3336C65.1185 10.4565 66.2221 10.0151 67.5145 10.0151C68.1579 10.0151 68.7714 10.1446 69.3568 10.3853C69.9403 10.6279 70.4154 10.9561 70.7596 11.361L69.9778 12.1305C69.3774 11.4394 68.56 11.0984 67.5145 11.0984C66.5718 11.0984 65.7545 11.4193 65.0606 12.0667C64.3741 12.7159 64.03 13.5566 64.03 14.5888C64.03 15.6209 64.3741 16.4689 65.0606 17.1181C65.7545 17.7582 66.5718 18.0864 67.5145 18.0864C68.5151 18.0864 69.3568 17.7582 70.0208 17.1108C70.4584 16.6823 70.7072 16.0914 70.7727 15.3364H67.5145V14.2824H71.8612C71.9136 14.5103 71.9285 14.731 71.9285 14.9444Z" fill="white" stroke="white" stroke-width="0.0598519" stroke-miterlimit="10"/>
<path d="M78.8244 11.2897H74.7413V14.0616H78.4222V15.1156H74.7413V17.8875H78.8244V18.9616H73.5854V10.2156H78.8244V11.2897Z" fill="white" stroke="white" stroke-width="0.0598519" stroke-miterlimit="10"/>
<path d="M83.6911 18.9616H82.5352V11.2897H80.0308V10.2156H86.1974V11.2897H83.6911V18.9616Z" fill="white" stroke="white" stroke-width="0.0598519" stroke-miterlimit="10"/>
<path d="M90.6602 18.9616V10.2156H91.8142V18.9616H90.6602Z" fill="white" stroke="white" stroke-width="0.0598519" stroke-miterlimit="10"/>
<path d="M96.9298 18.9616H95.7833V11.2897H93.2695V10.2156H99.4436V11.2897H96.9298V18.9616Z" fill="white" stroke="white" stroke-width="0.0598519" stroke-miterlimit="10"/>
<path d="M111.118 17.8366C110.234 18.7211 109.138 19.1624 107.83 19.1624C106.515 19.1624 105.419 18.7211 104.535 17.8366C103.652 16.954 103.212 15.8708 103.212 14.5888C103.212 13.3068 103.652 12.2235 104.535 11.3409C105.419 10.4565 106.515 10.0151 107.83 10.0151C109.13 10.0151 110.226 10.4565 111.111 11.3482C112.001 12.2381 112.441 13.314 112.441 14.5888C112.441 15.8708 112.001 16.954 111.118 17.8366ZM105.39 17.1035C106.055 17.7582 106.865 18.0864 107.83 18.0864C108.788 18.0864 109.605 17.7582 110.264 17.1035C110.928 16.4488 111.264 15.6082 111.264 14.5888C111.264 13.5694 110.928 12.7287 110.264 12.074C109.605 11.4193 108.788 11.0911 107.83 11.0911C106.865 11.0911 106.055 11.4193 105.39 12.074C104.726 12.7287 104.389 13.5694 104.389 14.5888C104.389 15.6082 104.726 16.4488 105.39 17.1035Z" fill="white" stroke="white" stroke-width="0.0598519" stroke-miterlimit="10"/>
<path d="M114.062 18.9616V10.2156H115.465L119.827 17.0176H119.877L119.827 15.3363V10.2156H120.981V18.9616H119.776L115.209 11.824H115.159L115.209 13.5127V18.9616H114.062Z" fill="white" stroke="white" stroke-width="0.0598519" stroke-miterlimit="10"/>
<path d="M102.928 31.7345C99.4134 31.7345 96.5424 34.3423 96.5424 37.9403C96.5424 41.5091 99.4134 44.1442 102.928 44.1442C106.45 44.1442 109.321 41.5091 109.321 37.9403C109.321 34.3423 106.45 31.7345 102.928 31.7345ZM102.928 41.7006C101 41.7006 99.3405 40.1487 99.3405 37.9403C99.3405 35.7027 101 34.1782 102.928 34.1782C104.856 34.1782 106.523 35.7027 106.523 37.9403C106.523 40.1487 104.856 41.7006 102.928 41.7006ZM88.9955 31.7345C85.4736 31.7345 82.61 34.3423 82.61 37.9403C82.61 41.5091 85.4736 44.1442 88.9955 44.1442C92.5155 44.1442 95.3809 41.5091 95.3809 37.9403C95.3809 34.3423 92.5155 31.7345 88.9955 31.7345ZM88.9955 41.7006C87.0653 41.7006 85.4006 40.1487 85.4006 37.9403C85.4006 35.7027 87.0653 34.1782 88.9955 34.1782C90.9238 34.1782 92.5829 35.7027 92.5829 37.9403C92.5829 40.1487 90.9238 41.7006 88.9955 41.7006ZM72.4165 33.6366V36.2735H78.8749C78.686 37.747 78.181 38.8302 77.4067 39.5852C76.464 40.497 74.9958 41.5091 72.4165 41.5091C68.442 41.5091 65.3297 38.3816 65.3297 34.5064C65.3297 30.6312 68.442 27.5038 72.4165 27.5038C74.5656 27.5038 76.1292 28.3226 77.2832 29.3839L79.1891 27.5256C77.575 26.023 75.4278 24.8686 72.4165 24.8686C66.9663 24.8686 62.3857 29.1924 62.3857 34.5064C62.3857 39.8204 66.9663 44.1442 72.4165 44.1442C75.3624 44.1442 77.575 43.2032 79.3145 41.438C81.0969 39.7001 81.6524 37.2564 81.6524 35.2833C81.6524 34.6705 81.6001 34.107 81.5065 33.6366H72.4165ZM140.21 35.6808C139.684 34.2931 138.063 31.7345 134.76 31.7345C131.487 31.7345 128.761 34.2493 128.761 37.9403C128.761 41.4161 131.458 44.1442 135.074 44.1442C137.997 44.1442 139.684 42.4063 140.378 41.3942L138.209 39.9845C137.485 41.0167 136.499 41.7006 135.074 41.7006C133.658 41.7006 132.642 41.0678 131.992 39.8204L140.504 36.3866L140.21 35.6808ZM131.531 37.747C131.458 35.3544 133.437 34.1289 134.855 34.1289C135.966 34.1289 136.909 34.6705 137.223 35.4456L131.531 37.747ZM124.613 43.7667H127.411V25.5306H124.613V43.7667ZM120.031 33.1168H119.937C119.309 32.391 118.11 31.7345 116.591 31.7345C113.404 31.7345 110.49 34.4627 110.49 37.9603C110.49 41.438 113.404 44.1442 116.591 44.1442C118.11 44.1442 119.309 43.4822 119.937 42.7346H120.031V43.6245C120.031 45.997 118.731 47.2717 116.634 47.2717C114.924 47.2717 113.864 46.0681 113.426 45.056L110.993 46.0462C111.694 47.6911 113.552 49.7153 116.634 49.7153C119.915 49.7153 122.683 47.8334 122.683 43.2543V32.112H120.031V33.1168ZM116.83 41.7006C114.902 41.7006 113.288 40.1268 113.288 37.9603C113.288 35.7738 114.902 34.1782 116.83 34.1782C118.731 34.1782 120.229 35.7738 120.229 37.9603C120.229 40.1268 118.731 41.7006 116.83 41.7006ZM153.31 25.5306H146.618V43.7667H149.408V36.8571H153.31C156.409 36.8571 159.449 34.6705 159.449 31.1929C159.449 27.7171 156.402 25.5306 153.31 25.5306ZM153.383 34.3204H149.408V28.0673H153.383C155.467 28.0673 156.656 29.7541 156.656 31.1929C156.656 32.6044 155.467 34.3204 153.383 34.3204ZM170.633 31.6999C168.617 31.6999 166.52 32.5679 165.658 34.4918L168.135 35.5039C168.668 34.4918 169.648 34.1636 170.684 34.1636C172.132 34.1636 173.6 35.0116 173.622 36.5087V36.7002C173.117 36.4157 172.036 35.9945 170.706 35.9945C168.039 35.9945 165.322 37.426 165.322 40.0976C165.322 42.5412 167.506 44.115 169.962 44.115C171.84 44.115 172.876 43.2889 173.527 42.3279H173.622V43.7375H176.317V36.7422C176.317 33.5089 173.841 31.6999 170.633 31.6999ZM170.297 41.6933C169.384 41.6933 168.112 41.252 168.112 40.1487C168.112 38.7372 169.698 38.1956 171.071 38.1956C172.3 38.1956 172.876 38.46 173.622 38.8083C173.403 40.497 171.913 41.6933 170.297 41.6933ZM186.137 32.0993L182.929 40.0046H182.834L179.518 32.0993H176.508L181.491 43.1467L178.648 49.2941H181.564L189.242 32.0993H186.137ZM160.982 43.7667H163.78V25.5306H160.982V43.7667Z" fill="white"/>
<defs>
<linearGradient id="paint0_linear_10_1859" x1="33.5963" y1="45.6491" x2="9.1205" y2="20.5457" gradientUnits="userSpaceOnUse">
<stop stop-color="#00A0FF"/>
<stop offset="0.0066" stop-color="#00A1FF"/>
<stop offset="0.2601" stop-color="#00BEFF"/>
<stop offset="0.5122" stop-color="#00D2FF"/>
<stop offset="0.7604" stop-color="#00DFFF"/>
<stop offset="1" stop-color="#00E3FF"/>
</linearGradient>
<linearGradient id="paint1_linear_10_1859" x1="51.6038" y1="29.1758" x2="15.3981" y2="29.1758" gradientUnits="userSpaceOnUse">
<stop stop-color="#FFE000"/>
<stop offset="0.4087" stop-color="#FFBD00"/>
<stop offset="0.7754" stop-color="#FFA500"/>
<stop offset="1" stop-color="#FF9C00"/>
</linearGradient>
<linearGradient id="paint2_linear_10_1859" x1="38.126" y1="25.8281" x2="4.93481" y2="-8.21419" gradientUnits="userSpaceOnUse">
<stop stop-color="#FF3A44"/>
<stop offset="1" stop-color="#C31162"/>
</linearGradient>
<linearGradient id="paint3_linear_10_1859" x1="11.8964" y1="58.0985" x2="26.7177" y2="42.8972" gradientUnits="userSpaceOnUse">
<stop stop-color="#32A071"/>
<stop offset="0.0685" stop-color="#2DA771"/>
<stop offset="0.4762" stop-color="#15CF74"/>
<stop offset="0.8009" stop-color="#06E775"/>
<stop offset="1" stop-color="#00F076"/>
</linearGradient>
</defs>
</svg>
