<svg width="184" height="61" viewBox="0 0 184 61" fill="none" xmlns="http://www.w3.org/2000/svg">
<circle cx="30.2432" cy="30.2432" r="30.2432" fill="#090008"/>
<circle cx="30.2432" cy="31.3453" r="18.6059" stroke="white" stroke-width="2.00983"/>
<circle cx="30.2446" cy="31.3451" r="16.9331" fill="#0E0101"/>
<circle cx="30.2421" cy="31.3454" r="15.0429" fill="#D0BC03"/>
<circle cx="30.2018" cy="31.3039" r="5.89178" fill="#031603"/>
<ellipse cx="22.4433" cy="23.8008" rx="1.62964" ry="3.61022" transform="rotate(-41.6713 22.4433 23.8008)" fill="#031603"/>
<ellipse cx="37.454" cy="23.6851" rx="1.62964" ry="3.61022" transform="rotate(45 37.454 23.6851)" fill="#031603"/>
<ellipse cx="37.457" cy="38.9786" rx="1.62964" ry="3.61022" transform="rotate(135 37.457 38.9786)" fill="#031603"/>
<ellipse cx="22.9127" cy="38.5606" rx="1.62964" ry="3.61022" transform="rotate(-135 22.9127 38.5606)" fill="#031603"/>
<path d="M96.4919 12.7261C98.6989 12.7261 99.8025 14.8163 99.8025 18.9968V20.3211C97.5694 23.8784 95.3623 26.8579 93.1812 29.2598C98.2575 33.4013 100.796 36.9261 100.796 39.8343V45.4429C100.796 46.6244 99.1404 47.2865 95.8297 47.4293C91.1429 39.8733 88.0595 35.3552 86.5794 33.8752V46.7672L85.5863 47.7604H84.262C78.3158 46.6828 75.3428 44.5925 75.3428 41.4896V41.1586C75.3428 28.4094 76.7774 19.4837 79.6466 14.3814L85.5863 13.3882C86.1056 13.7517 86.547 15.842 86.9105 19.6589L86.5794 24.2938C91.4221 20.8923 93.8434 17.4778 93.8434 14.0503C94.7781 13.1675 95.661 12.7261 96.4919 12.7261Z" fill="white"/>
<path d="M125.213 12.804H126.849L127.842 13.4661C127.57 17.4259 126.908 19.4058 125.856 19.4058C119.053 20.016 115.651 20.8923 115.651 22.0348V26.6697L116.625 26.9813C117.625 26.5528 119.053 26.3386 120.91 26.3386H123.558L124.551 27.3123V33.252L123.558 34.2452H120.91C118.274 34.2452 116.956 34.0245 116.956 33.5831L115.651 33.9141V37.8674C115.651 39.1917 116.528 39.8538 118.28 39.8538L126.849 41.4896L127.842 47.0982L126.849 47.7604H113.334C107.401 46.6828 104.434 44.5925 104.434 41.4896V41.1586C104.434 28.4613 105.862 19.5616 108.719 14.4593C113.6 13.3558 119.098 12.804 125.213 12.804Z" fill="white"/>
<path d="M152.649 12.7261C154.857 12.7261 155.96 14.8163 155.96 18.9968V20.3211C153.727 23.8784 151.52 26.8579 149.339 29.2598C154.415 33.4013 156.953 36.9261 156.953 39.8343V45.4429C156.953 46.6244 155.298 47.2865 151.987 47.4293C147.301 39.8733 144.217 35.3552 142.737 33.8752V46.7672L141.744 47.7604H140.42C134.473 46.6828 131.5 44.5925 131.5 41.4896V41.1586C131.5 28.4094 132.935 19.4837 135.804 14.3814L141.744 13.3882C142.263 13.7517 142.705 15.842 143.068 19.6589L142.737 24.2938C147.58 20.8923 150.001 17.4778 150.001 14.0503C150.936 13.1675 151.819 12.7261 152.649 12.7261Z" fill="white"/>
<path d="M181.371 12.804H183.007L184 13.4661C183.727 17.4259 183.065 19.4058 182.014 19.4058C175.211 20.016 171.809 20.8923 171.809 22.0348V26.6697L172.783 26.9813C173.782 26.5528 175.211 26.3386 177.067 26.3386H179.716L180.709 27.3123V33.252L179.716 34.2452H177.067C174.432 34.2452 173.114 34.0245 173.114 33.5831L171.809 33.9141V37.8674C171.809 39.1917 172.685 39.8538 174.438 39.8538L183.007 41.4896L184 47.0982L183.007 47.7604H169.492C163.558 46.6828 160.592 44.5925 160.592 41.4896V41.1586C160.592 28.4613 162.02 19.5616 164.876 14.4593C169.758 13.3558 175.256 12.804 181.371 12.804Z" fill="white"/>
</svg>
